<?xml version="1.0" encoding="utf-8"?>
<!-- Generator: Adobe Illustrator 16.0.0, SVG Export Plug-In . SVG Version: 6.00 Build 0)  -->
<!DOCTYPE svg PUBLIC "-//W3C//DTD SVG 1.0//EN" "http://www.w3.org/TR/2001/REC-SVG-20010904/DTD/svg10.dtd">
<svg version="1.0" id="Layer_1" xmlns="http://www.w3.org/2000/svg" xmlns:xlink="http://www.w3.org/1999/xlink" x="0px" y="0px"
	 width="230px" height="230px" viewBox="0 0 230 230" enable-background="new 0 0 230 230" xml:space="preserve">
<g>
	<path fill-rule="evenodd" clip-rule="evenodd" fill="#333333" d="M114.3,228.096c-25.829-0.005-51.657,0.008-77.485-0.01
		c-20.63-0.013-35.129-14.451-35.167-35.271c-0.078-42.158-0.023-84.317-0.024-126.477c0-9.665-0.068-19.33,0.006-28.994
		C1.788,16.72,16.374,2.096,36.978,2.073c51.824-0.059,103.647-0.063,155.472-0.001c20.421,0.023,35.285,15.004,35.299,35.438
		c0.034,51.656,0.043,103.313,0.008,154.971c-0.014,20.964-14.607,35.585-35.471,35.612
		C166.291,228.127,140.295,228.101,114.3,228.096z"/>
	<path fill-rule="evenodd" clip-rule="evenodd" fill="#333333" d="M147.177,164.924c0.701,0.007,1.403,0.014,2.104,0.021
		c0.566,1.966,1.384,3.897,1.654,5.903c0.797,5.935,1.201,11.927,2.166,17.83c0.256,1.568,1.977,2.897,3.025,4.336
		c0.996-1.446,2.76-2.843,2.858-4.348c0.466-7.133,0.092-14.331,0.77-21.434c0.543-5.689,1.891-11.35,3.388-16.887
		c1.469-5.435,3.906-10.611,5.326-16.056c2.071-7.934,0.109-11.858-6.766-16.142c-2.519-1.569-4.994-3.391-7.014-5.543
		c-4.143-4.414-9.109-5.625-14.539-3.754c-6.266,2.159-12.227,5.191-18.456,7.471c-7.588,2.777-15.324,5.146-22.978,7.745
		c-0.987,0.336-1.867,0.986-2.966,1.583c2.282,4.11,5.842,4.834,9.534,4.893c3.652,0.058,7.312-0.474,10.966-0.445
		c4.698,0.035,6.522,2.325,4.936,6.771c-1.439,4.031-3.225,8.097-5.664,11.584c-6.385,9.131-13.326,17.872-19.741,26.983
		c-1.013,1.438-0.443,3.99-0.605,6.027c1.977-0.442,4.56-0.24,5.827-1.434c6.295-5.931,12.208-12.265,18.342-18.37
		c1.283-1.277,2.932-2.188,4.411-3.268c0.404,0.28,0.81,0.562,1.214,0.843c-0.473,1.775-0.723,3.649-1.454,5.311
		c-3.887,8.824-8.056,17.529-11.713,26.446c-0.668,1.629-0.13,5.023,1.08,5.893c2.599,1.865,4.356-0.308,5.697-2.771
		c4.296-7.888,8.718-15.706,13.152-23.517c1.021-1.798,2.287-3.457,3.44-5.18c0.48,0.118,0.96,0.237,1.439,0.355
		c0,2.002,0.169,4.021-0.029,6.003c-0.842,8.44-1.9,16.861-2.58,25.314c-0.097,1.205,1.451,2.543,2.238,3.82
		c1.329-0.917,2.873-1.645,3.914-2.817c0.683-0.77,0.71-2.171,0.911-3.311c1.357-7.695,2.616-15.409,4.06-23.088
		C145.559,169.391,146.479,167.178,147.177,164.924z"/>
	<path fill-rule="evenodd" clip-rule="evenodd" fill="#333333" d="M115.27,136.96c-4.797,0-8.007,0.425-11.048-0.111
		c-3.523-0.62-7.15-1.615-10.269-3.304c-3.68-1.991-5.062-5.66-4.027-9.878c0.981-3.997,4.08-5.226,7.757-5.96
		c4.222-0.844,8.347-2.162,12.541-3.163c2.965-0.708,3.684-2.481,3.765-5.431c0.284-10.316,0.907-20.622,1.438-30.931
		c0.14-2.701,0.684-5.722-3.091-6.222c-4.05-0.536-3.788,2.971-4.291,5.394c-1.721,8.304-3.244,16.647-4.948,24.955
		c-0.332,1.615-1.133,3.135-1.718,4.699c-0.488-0.007-0.976-0.013-1.463-0.019c-0.61-1.931-1.452-3.821-1.791-5.799
		c-1.57-9.182-2.964-18.394-4.505-27.58c-0.456-2.719-1.297-5.615-4.881-4.997c-3.352,0.579-2.961,3.482-2.775,6.02
		c0.685,9.299,1.396,18.596,2.023,27.897c0.112,1.665-0.127,3.354-0.204,5.031c-2.397-1.494-3.677-3.169-4.647-5.008
		c-3.571-6.77-6.979-13.625-10.585-20.376c-1.082-2.026-1.784-5.281-5.301-3.626c-3.314,1.56-1.84,4.244-0.898,6.46
		c3.384,7.96,6.977,15.83,10.339,23.799c0.763,1.81,0.915,3.877,1.348,5.826c-0.466,0.304-0.932,0.607-1.398,0.911
		c-1.569-1.242-3.366-2.286-4.666-3.766c-4.178-4.751-8.048-9.778-12.337-14.422c-0.901-0.976-3.079-0.772-4.668-1.112
		c-0.027,1.494-0.628,3.324,0.016,4.428c3.184,5.458,6.549,10.826,10.132,16.032c4.109,5.972,7.195,12.169,8.258,19.527
		c0.8,5.537,2.466,11.068,4.557,16.276c4.725,11.771,16.978,13.287,24.399,3.168C106.593,149.87,110.541,143.828,115.27,136.96z"/>
	<path fill-rule="evenodd" clip-rule="evenodd" fill="#333333" d="M82.708,17.89c-3.678,7.032-9.311,6.409-14.838,6.226
		c-2.994-0.1-5.997-0.094-8.991-0.002c-10.249,0.313-19.938,2.76-27.693,9.688c-3.458,3.089-5.82,7.484-8.319,11.51
		c-0.617,0.994,0.173,2.861,0.317,4.327c0.572,0.088,1.145,0.176,1.718,0.265c1.104-7.023,5.11-11.871,10.647-15.618
		c8.077-5.465,17.164-6.193,26.616-6.908c11.056-0.837,19.902,2.147,28.032,9.538c6.063,5.512,13.063,9.993,19.645,14.935
		c0.25-0.271,0.5-0.54,0.75-0.811C101.575,40.32,92.559,29.601,82.708,17.89z"/>
	<path fill-rule="evenodd" clip-rule="evenodd" fill="#333333" d="M118.295,51.448c0.188,0.285,0.377,0.569,0.564,0.854
		c9.803-7.383,19.576-14.806,29.439-22.107c1.536-1.137,3.473-2.407,5.244-2.438c7.984-0.143,16.111-0.737,23.934,0.473
		c12.115,1.875,22.76,6.718,26.474,20.149c0.146,0.53,0.823,0.914,1.253,1.365c0.48-0.082,0.961-0.165,1.442-0.248
		c-0.165-1.827,0.061-3.803-0.565-5.456c-2.625-6.934-8.12-11.212-14.364-14.649c-8.937-4.919-18.678-5.519-28.601-5.328
		c-6.021,0.116-12.511,1.46-16.697-5.957C136.668,29.664,127.482,40.556,118.295,51.448z"/>
	<path fill-rule="evenodd" clip-rule="evenodd" fill="#333333" d="M178.646,120.681c0,6.575,0,12.559,0,18.615
		C182.859,134.314,183.035,125.474,178.646,120.681z"/>
	<path fill-rule="evenodd" clip-rule="evenodd" fill="#333333" d="M82.793,168.545c-3.896-4.511-7.878-9.122-12.149-14.067
		C71.561,161.916,77.313,168.229,82.793,168.545z"/>
	<path fill-rule="evenodd" clip-rule="evenodd" fill="#333333" d="M172.988,138.009c4.053-5.442,3.088-15.633-1.105-17.879
		C172.234,125.82,172.604,131.778,172.988,138.009z"/>
	<path fill-rule="evenodd" clip-rule="evenodd" fill="#333333" d="M65.72,157.057c-0.791,6.29,5.347,14.509,10.32,14.527
		C72.763,166.971,69.322,162.128,65.72,157.057z"/>
	<path fill-rule="evenodd" clip-rule="evenodd" fill="#F1F2F2" d="M147.177,164.924c-0.697,2.254-1.618,4.467-2.052,6.771
		c-1.443,7.679-2.702,15.393-4.06,23.088c-0.201,1.14-0.229,2.541-0.911,3.311c-1.041,1.173-2.585,1.9-3.914,2.817
		c-0.787-1.277-2.335-2.615-2.238-3.82c0.68-8.453,1.738-16.874,2.58-25.314c0.198-1.982,0.029-4.001,0.029-6.003
		c-0.479-0.118-0.959-0.237-1.439-0.355c-1.153,1.723-2.42,3.382-3.44,5.18c-4.435,7.811-8.856,15.629-13.152,23.517
		c-1.341,2.463-3.099,4.636-5.697,2.771c-1.21-0.869-1.749-4.264-1.08-5.893c3.657-8.917,7.826-17.622,11.713-26.446
		c0.731-1.661,0.981-3.535,1.454-5.311c-0.404-0.281-0.81-0.563-1.214-0.843c-1.479,1.079-3.128,1.99-4.411,3.268
		c-6.134,6.105-12.047,12.439-18.342,18.37c-1.268,1.193-3.851,0.991-5.827,1.434c0.162-2.037-0.407-4.59,0.605-6.027
		c6.416-9.111,13.356-17.853,19.741-26.983c2.439-3.487,4.225-7.553,5.664-11.584c1.587-4.445-0.237-6.735-4.936-6.771
		c-3.654-0.028-7.313,0.503-10.966,0.445c-3.692-0.059-7.252-0.782-9.534-4.893c1.099-0.597,1.979-1.247,2.966-1.583
		c7.654-2.599,15.39-4.968,22.978-7.745c6.229-2.279,12.19-5.312,18.456-7.471c5.43-1.871,10.396-0.66,14.539,3.754
		c2.02,2.152,4.495,3.974,7.014,5.543c6.875,4.283,8.837,8.208,6.766,16.142c-1.42,5.444-3.857,10.621-5.326,16.056
		c-1.497,5.537-2.845,11.197-3.388,16.887c-0.678,7.103-0.304,14.301-0.77,21.434c-0.099,1.505-1.862,2.901-2.858,4.348
		c-1.049-1.438-2.77-2.768-3.025-4.336c-0.965-5.903-1.369-11.896-2.166-17.83c-0.271-2.006-1.088-3.938-1.654-5.903
		C148.58,164.938,147.878,164.931,147.177,164.924z M115.27,136.96c-4.729,6.868-8.676,12.91-12.938,18.721
		c-7.422,10.119-19.674,8.603-24.399-3.168c-2.091-5.208-3.757-10.739-4.557-16.276c-1.063-7.358-4.149-13.556-8.258-19.527
		c-3.583-5.206-6.948-10.574-10.132-16.032c-0.644-1.104-0.043-2.934-0.016-4.428c1.589,0.34,3.768,0.137,4.668,1.112
		c4.289,4.644,8.16,9.671,12.337,14.422c1.3,1.479,3.097,2.523,4.666,3.766c0.466-0.304,0.932-0.607,1.398-0.911
		c-0.433-1.949-0.584-4.017-1.348-5.826c-3.362-7.969-6.956-15.839-10.339-23.799c-0.942-2.216-2.416-4.9,0.898-6.46
		c3.517-1.655,4.219,1.6,5.301,3.626c3.606,6.751,7.014,13.606,10.585,20.376c0.97,1.839,2.25,3.514,4.647,5.008
		c0.077-1.678,0.316-3.366,0.204-5.031c-0.627-9.302-1.338-18.599-2.023-27.897c-0.187-2.537-0.577-5.44,2.775-6.02
		c3.583-0.618,4.425,2.278,4.881,4.997c1.541,9.187,2.935,18.398,4.505,27.58c0.338,1.978,1.18,3.868,1.791,5.799
		c0.488,0.006,0.976,0.012,1.463,0.019c0.585-1.564,1.387-3.084,1.718-4.699c1.704-8.308,3.227-16.651,4.948-24.955
		c0.502-2.423,0.24-5.93,4.291-5.394c3.775,0.5,3.231,3.521,3.091,6.222c-0.531,10.309-1.154,20.614-1.438,30.931
		c-0.081,2.949-0.8,4.723-3.765,5.431c-4.194,1.001-8.319,2.319-12.541,3.163c-3.677,0.734-6.775,1.963-7.757,5.96
		c-1.035,4.218,0.347,7.887,4.027,9.878c3.119,1.688,6.746,2.684,10.269,3.304C107.263,137.385,110.473,136.96,115.27,136.96z
		 M82.708,17.89c9.851,11.711,18.868,22.431,27.884,33.149c-0.25,0.271-0.5,0.54-0.75,0.811
		c-6.583-4.941-13.582-9.423-19.645-14.935c-8.129-7.391-16.976-10.375-28.032-9.538c-9.453,0.715-18.54,1.443-26.616,6.908
		c-5.537,3.747-9.543,8.595-10.647,15.618c-0.573-0.089-1.146-0.177-1.718-0.265c-0.144-1.466-0.934-3.333-0.317-4.327
		c2.499-4.025,4.861-8.421,8.319-11.51c7.755-6.929,17.444-9.375,27.693-9.688c2.995-0.092,5.997-0.098,8.991,0.002
		C73.396,24.299,79.03,24.922,82.708,17.89z M118.859,52.302c9.803-7.383,19.576-14.806,29.439-22.107
		c1.536-1.137,3.473-2.407,5.244-2.438c7.984-0.143,16.111-0.737,23.934,0.473c12.115,1.875,22.76,6.718,26.474,20.149
		c0.146,0.53,0.823,0.914,1.253,1.365c0.48-0.082,0.961-0.165,1.442-0.248c-0.165-1.827,0.061-3.803-0.565-5.456
		c-2.625-6.934-8.12-11.212-14.364-14.649c-8.937-4.919-18.678-5.519-28.601-5.328c-6.021,0.116-12.511,1.46-16.697-5.957
		c-9.75,11.56-18.936,22.451-28.123,33.344C118.483,51.733,118.672,52.018,118.859,52.302z M178.646,139.296
		c4.214-4.981,4.39-13.822,0-18.615C178.646,127.256,178.646,133.239,178.646,139.296z M70.644,154.478
		c0.917,7.438,6.669,13.751,12.149,14.067C78.897,164.034,74.915,159.423,70.644,154.478z M171.883,120.13
		c0.352,5.69,0.721,11.648,1.105,17.879C177.041,132.566,176.076,122.376,171.883,120.13z M76.04,171.584
		c-3.277-4.613-6.717-9.456-10.32-14.527C64.929,163.347,71.067,171.565,76.04,171.584z"/>
</g>
</svg>
