<?xml version="1.0" encoding="utf-8"?>
<!-- Generator: Adobe Illustrator 16.0.0, SVG Export Plug-In . SVG Version: 6.00 Build 0)  -->
<!DOCTYPE svg PUBLIC "-//W3C//DTD SVG 1.1//EN" "http://www.w3.org/Graphics/SVG/1.1/DTD/svg11.dtd">
<svg version="1.1" id="Layer_1" xmlns="http://www.w3.org/2000/svg" xmlns:xlink="http://www.w3.org/1999/xlink" x="0px" y="0px"
	 width="500px" height="500px" viewBox="0 0 500 500" enable-background="new 0 0 500 500" xml:space="preserve">
<path fill-rule="evenodd" clip-rule="evenodd" fill="#333333" d="M248.478,495.86c-56.149-0.011-112.298,0.017-168.447-0.021
	c-44.849-0.027-76.367-31.415-76.451-76.675c-0.17-91.648-0.05-183.299-0.052-274.949c-0.001-21.011-0.148-42.022,0.013-63.031
	C3.887,36.347,35.596,4.556,80.386,4.507c112.661-0.127,225.32-0.136,337.982-0.002c44.393,0.051,76.706,32.617,76.736,77.038
	c0.074,112.296,0.094,224.595,0.017,336.893c-0.029,45.574-31.755,77.358-77.11,77.418
	C361.502,495.928,304.989,495.871,248.478,495.86z M319.949,358.53c1.524,0.015,3.051,0.029,4.575,0.044
	c1.231,4.273,3.008,8.473,3.597,12.834c1.732,12.901,2.611,25.928,4.708,38.761c0.557,3.409,4.297,6.299,6.577,9.426
	c2.166-3.144,6-6.18,6.214-9.451c1.013-15.506,0.2-31.154,1.673-46.595c1.181-12.368,4.11-24.673,7.365-36.71
	c3.192-11.814,8.491-23.068,11.578-34.904c4.503-17.247,0.238-25.779-14.708-35.09c-5.475-3.412-10.856-7.371-15.247-12.05
	c-9.006-9.596-19.803-12.228-31.606-8.161c-13.621,4.694-26.579,11.286-40.122,16.24c-16.495,6.038-33.313,11.188-49.952,16.838
	c-2.146,0.73-4.059,2.144-6.447,3.441c4.96,8.936,12.699,10.509,20.725,10.636c7.94,0.125,15.896-1.029,23.839-0.968
	c10.213,0.076,14.179,5.055,10.729,14.718c-3.13,8.764-7.011,17.602-12.313,25.183c-13.88,19.85-28.969,38.853-42.916,58.66
	c-2.201,3.125-0.964,8.674-1.316,13.103c4.297-0.962,9.912-0.522,12.667-3.116c13.685-12.893,26.538-26.662,39.874-39.936
	c2.789-2.776,6.373-4.757,9.589-7.104c0.879,0.609,1.76,1.221,2.639,1.833c-1.027,3.859-1.57,7.933-3.161,11.544
	c-8.449,19.184-17.512,38.107-25.462,57.492c-1.453,3.541-0.282,10.921,2.348,12.81c5.649,4.056,9.471-0.668,12.385-6.022
	c9.339-17.147,18.952-34.144,28.593-51.123c2.218-3.908,4.972-7.516,7.479-11.26c1.045,0.257,2.087,0.516,3.13,0.772
	c0,4.352,0.367,8.74-0.064,13.05c-1.829,18.349-4.131,36.655-5.608,55.031c-0.21,2.62,3.154,5.528,4.866,8.305
	c2.889-1.993,6.245-3.574,8.509-6.124c1.483-1.673,1.543-4.72,1.98-7.197c2.951-16.729,5.688-33.498,8.825-50.191
	C316.432,368.24,318.434,363.43,319.949,358.53z M250.586,297.739c-10.428,0-17.406,0.923-24.017-0.242
	c-7.659-1.348-15.544-3.512-22.324-7.182c-7.999-4.329-11.004-12.305-8.754-21.475c2.134-8.688,8.87-11.359,16.863-12.956
	c9.179-1.834,18.146-4.7,27.263-6.876c6.445-1.54,8.009-5.395,8.185-11.806c0.617-22.427,1.971-44.831,3.126-67.24
	c0.304-5.873,1.486-12.438-6.72-13.525c-8.805-1.166-8.235,6.458-9.327,11.725c-3.742,18.051-7.053,36.19-10.756,54.25
	c-0.721,3.511-2.463,6.814-3.735,10.216c-1.06-0.015-2.121-0.028-3.181-0.041c-1.327-4.197-3.157-8.307-3.892-12.606
	c-3.414-19.96-6.444-39.986-9.794-59.957c-0.992-5.91-2.82-12.207-10.611-10.863c-7.286,1.259-6.438,7.57-6.032,13.086
	c1.489,20.215,3.035,40.425,4.399,60.646c0.243,3.62-0.277,7.29-0.444,10.938c-5.211-3.248-7.993-6.889-10.102-10.887
	c-7.764-14.716-15.172-29.62-23.011-44.295c-2.353-4.405-3.879-11.481-11.524-7.883c-7.205,3.391-4,9.227-1.952,14.043
	c7.356,17.304,15.167,34.414,22.477,51.737c1.659,3.934,1.988,8.428,2.93,12.666c-1.012,0.66-2.026,1.32-3.039,1.981
	c-3.412-2.701-7.317-4.97-10.144-8.187c-9.082-10.328-17.497-21.257-26.821-31.352c-1.958-2.121-6.693-1.68-10.148-2.418
	c-0.06,3.249-1.365,7.227,0.034,9.625c6.922,11.865,14.238,23.535,22.027,34.853c8.933,12.982,15.641,26.454,17.952,42.451
	c1.739,12.037,5.36,24.062,9.906,35.383c10.272,25.589,36.908,28.886,53.042,6.888C231.725,325.805,240.306,312.67,250.586,297.739z
	 M179.799,38.891c-7.995,15.288-20.241,13.933-32.256,13.534c-6.509-0.216-13.036-0.204-19.546-0.004
	c-22.279,0.681-43.342,5.999-60.202,21.062c-7.517,6.715-12.651,16.271-18.084,25.021c-1.342,2.161,0.376,6.22,0.688,9.407
	c1.244,0.191,2.489,0.382,3.734,0.575c2.399-15.268,11.108-25.807,23.146-33.953c17.558-11.88,37.313-13.463,57.861-15.018
	c24.035-1.819,43.266,4.668,60.939,20.735c13.18,11.982,28.396,21.724,42.707,32.466c0.544-0.588,1.088-1.174,1.631-1.762
	C220.815,87.653,201.214,64.349,179.799,38.891z M257.163,111.844c0.409,0.62,0.819,1.237,1.227,1.855
	c21.311-16.05,42.558-32.187,63.999-48.06c3.34-2.471,7.549-5.233,11.4-5.301c17.357-0.31,35.024-1.603,52.029,1.027
	c26.338,4.076,49.478,14.604,57.552,43.803c0.318,1.153,1.789,1.987,2.724,2.968c1.045-0.178,2.089-0.359,3.136-0.539
	c-0.359-3.972,0.132-8.267-1.229-11.861c-5.706-15.073-17.652-24.374-31.227-31.847c-19.427-10.693-40.604-11.997-62.175-11.583
	c-13.091,0.252-27.197,3.174-36.299-12.95C297.104,64.487,277.136,88.165,257.163,111.844z M388.359,262.35
	c0,14.294,0,27.301,0,40.468C397.521,291.988,397.902,272.769,388.359,262.35z M179.985,366.402
	c-8.47-9.807-17.127-19.831-26.412-30.582C155.567,351.991,168.072,365.714,179.985,366.402z M376.062,300.02
	c8.811-11.832,6.713-33.984-2.403-38.867C374.423,273.522,375.225,286.475,376.062,300.02z M142.869,341.428
	c-1.719,13.674,11.624,31.541,22.434,31.581C158.18,362.979,150.701,352.452,142.869,341.428z"/>
</svg>
